<?xml version="1.0" encoding="utf-8"?>
<!-- Generator: Adobe Illustrator 25.3.0, SVG Export Plug-In . SVG Version: 6.00 Build 0)  -->
<!DOCTYPE svg PUBLIC "-//W3C//DTD SVG 1.1//EN" "http://www.w3.org/Graphics/SVG/1.1/DTD/svg11.dtd" [
	<!ENTITY ns_extend "http://ns.adobe.com/Extensibility/1.0/">
	<!ENTITY ns_ai "http://ns.adobe.com/AdobeIllustrator/10.0/">
	<!ENTITY ns_graphs "http://ns.adobe.com/Graphs/1.0/">
	<!ENTITY ns_vars "http://ns.adobe.com/Variables/1.0/">
	<!ENTITY ns_imrep "http://ns.adobe.com/ImageReplacement/1.0/">
	<!ENTITY ns_sfw "http://ns.adobe.com/SaveForWeb/1.0/">
	<!ENTITY ns_custom "http://ns.adobe.com/GenericCustomNamespace/1.0/">
	<!ENTITY ns_adobe_xpath "http://ns.adobe.com/XPath/1.0/">
]>
<svg version="1.1" id="Capa_1" xmlns:x="&ns_extend;" xmlns:i="&ns_ai;" xmlns:graph="&ns_graphs;"
	 xmlns="http://www.w3.org/2000/svg" xmlns:xlink="http://www.w3.org/1999/xlink" x="0px" y="0px" viewBox="0 0 16 16"
	 style="enable-background:new 0 0 16 16;" xml:space="preserve">
<style type="text/css">
	.st0{fill-rule:evenodd;clip-rule:evenodd;}
	.st1{fill:#764B8E;}
</style>
<metadata>
	<sfw  xmlns="&ns_sfw;">
		<slices></slices>
		<sliceSourceBounds  bottomLeftOrigin="true" height="16" width="16" x="0" y="0"></sliceSourceBounds>
	</sfw>
</metadata>
<path class="st0" d="M3.6923,8.7429v6.6524C3.6923,15.7293,3.4169,16,3.0769,16H0.6154C0.2754,16,0,15.7293,0,15.3953V3.3001
	c0-0.2505,0.1571-0.475,0.3952-0.5646c0,0,5.3535-2.0163,6.944-2.6153c0.4253-0.1602,0.896-0.1602,1.3214,0
	c1.5904,0.599,6.9441,2.6153,6.9441,2.6153c0.3171,0.1194,0.4759,0.4694,0.3543,0.781c-0.1215,0.3118-0.4776,0.4678-0.7947,0.3483
	c0,0-5.3537-2.0163-6.9442-2.6153c-0.1418-0.0534-0.2986-0.0534-0.4404,0L1.2307,3.7161v11.0744h1.2309V5.7192
	c0-0.334,0.2754-0.6048,0.6153-0.6048h9.8461c0.3399,0,0.6155,0.2708,0.6155,0.6048v9.0713h1.2307V5.7192
	c0-0.3338,0.2757-0.6048,0.6154-0.6048c0.3396,0,0.6153,0.271,0.6153,0.6048v9.6761c0,0.334-0.2755,0.6047-0.6153,0.6047H12.923
	c-0.3398,0-0.6154-0.2707-0.6154-0.6047V8.7429H3.6923z M12.3076,7.5334V6.324H3.6923v1.2095H12.3076z"/>
<path class="st1" d="M6.2748,14.8c0.0952,0,0.1789-0.0415,0.2513-0.1245c0.0724-0.0829,0.1086-0.1861,0.1086-0.3094v-1.7335
	l1.297-2.1285c0.0166-0.0284,0.0299-0.0574,0.04-0.0869l0.0128-0.0447C7.9948,10.3275,8,10.2836,8,10.241
	c0-0.1281-0.0383-0.2336-0.1148-0.3165C7.8087,9.8415,7.7228,9.8,7.6277,9.8c-0.12,0-0.2234,0.0711-0.3103,0.2134l-1.0231,1.7155
	l-1.093-1.7297C5.1268,9.8854,5.0417,9.8203,4.9459,9.8041L4.8972,9.8c-0.091,0-0.18,0.0403-0.2668,0.1209
	C4.5434,10.0015,4.5,10.1058,4.5,10.2339c0,0.0474,0.0083,0.0995,0.0248,0.1564s0.0455,0.1162,0.0869,0.1778l1.2908,1.9664v1.8316
	c0,0.1028,0.0251,0.1915,0.0754,0.2663l0.0332,0.0431C6.0835,14.7585,6.1714,14.8,6.2748,14.8z"/>
<path d="M9.7601,14.8c0.3069,0,0.5924-0.0579,0.8563-0.1736c0.2641-0.1158,0.4773-0.2824,0.6398-0.5S11.5,13.6495,11.5,13.3486
	c0-0.2361-0.0338-0.4363-0.1015-0.6007c-0.0677-0.1643-0.1693-0.3009-0.3047-0.4097c-0.1354-0.1088-0.3058-0.1979-0.5111-0.2674
	c-0.2054-0.0694-0.4434-0.1296-0.7142-0.1805c-0.2076-0.0417-0.3859-0.0891-0.5348-0.1424
	c-0.1489-0.0532-0.2629-0.125-0.3419-0.2153c-0.079-0.0902-0.1185-0.2048-0.1185-0.3437c0-0.1158,0.0338-0.2176,0.1015-0.3056
	c0.0677-0.0879,0.1681-0.1574,0.3013-0.2083c0.1331-0.0509,0.2968-0.0764,0.4908-0.0764c0.1173,0,0.2437,0.0197,0.3791,0.059
	c0.1354,0.0394,0.2641,0.088,0.3859,0.1459c0.1219,0.0578,0.2189,0.1192,0.2911,0.184c0.0542,0.0417,0.1151,0.0625,0.1828,0.0625
	c0.1038,0,0.1941-0.0417,0.2708-0.125c0.0767-0.0833,0.1151-0.1759,0.1151-0.2778c0-0.1389-0.0655-0.2616-0.1963-0.368
	c-0.158-0.1389-0.3622-0.2535-0.6127-0.3438C10.3322,9.8451,10.0603,9.8,9.7669,9.8c-0.3114,0-0.5957,0.0556-0.853,0.1667
	c-0.2573,0.1111-0.4615,0.2731-0.6127,0.4861c-0.1512,0.2129-0.2268,0.4699-0.2268,0.7708c0,0.1991,0.0316,0.3785,0.0948,0.5382
	c0.0632,0.1597,0.1568,0.2986,0.2809,0.4167c0.1241,0.118,0.2787,0.2153,0.4637,0.2916c0.185,0.0764,0.3994,0.1331,0.6431,0.1702
	c0.2572,0.037,0.4693,0.0891,0.6363,0.1562c0.167,0.0672,0.2911,0.1493,0.3724,0.2466c0.0812,0.0972,0.1218,0.2152,0.1218,0.3541
	c0,0.1158-0.0429,0.2188-0.1286,0.3091c-0.0858,0.0902-0.1986,0.162-0.3385,0.2152c-0.1399,0.0533-0.2934,0.0799-0.4604,0.0799
	c-0.2482,0-0.457-0.037-0.6262-0.1111c-0.1693-0.0741-0.3396-0.1829-0.5111-0.3264c-0.0677-0.0556-0.1444-0.0833-0.2302-0.0833
	c-0.1128,0-0.2065,0.0405-0.2809,0.1215C8.0372,13.6831,8,13.7769,8,13.8833c0,0.0648,0.0158,0.1297,0.0474,0.1945
	c0.0316,0.0648,0.0767,0.1227,0.1354,0.1736c0.2302,0.2037,0.4716,0.3461,0.7244,0.4271C9.1599,14.7595,9.4442,14.8,9.7601,14.8z"/>
</svg>
